<?xml version="1.0" encoding="UTF-8" standalone="no"?>
<svg width="77px" height="50px" viewBox="0 0 77 50" version="1.1" xmlns="http://www.w3.org/2000/svg" xmlns:xlink="http://www.w3.org/1999/xlink">
    <!-- Generator: Sketch 3.8.2 (29753) - http://www.bohemiancoding.com/sketch -->
    <title>license_154111_Register_white</title>
    <desc>Created with Sketch.</desc>
    <defs></defs>
    <g id="Style-Guide" stroke="none" stroke-width="1" fill="none" fill-rule="evenodd">
        <g id="Icons" transform="translate(-1241.000000, -753.000000)" fill="#FFFFFF">
            <g id="license_154111_Register_white" transform="translate(1241.000000, 753.000000)">
                <g id="Group">
                    <polygon id="Shape" points="44.3622442 16.1412281 43.9147661 15.7526316 43.6624147 15.5333333 43.810636 15.2421053 44.0733065 14.7263158 43.5367081 14.4535088 43.2336988 14.3 43.3003046 13.9833333 43.4185063 13.4219298 42.8237451 13.2833333 42.4897783 13.204386 42.470078 12.8833333 42.4353679 12.3122807 41.8246589 12.3149123 41.4794347 12.3166667 41.3743665 12.0096491 41.189559 11.4649123 40.596674 11.6096491 40.2636452 11.6921053 40.0807139 11.4192982 39.7561282 10.9350877 39.2232822 11.2131579 38.921211 11.3692982 38.671674 11.1473684 38.2279483 10.754386 37.7842227 11.1473684 37.5346857 11.3692982 37.2335526 11.2131579 36.6997685 10.9342105 36.3742446 11.4192982 36.1913134 11.6921053 35.8582846 11.6096491 35.2663377 11.4649123 35.0815302 12.0096491 34.976462 12.3166667 34.6321759 12.3149123 34.0205288 12.3122807 33.9848806 12.8833333 33.9651803 13.204386 33.6312135 13.2833333 33.0373904 13.4219298 33.1555921 13.9833333 33.2221979 14.3 32.9182505 14.4535088 32.381652 14.7263158 32.6443226 15.2421053 32.793482 15.5333333 32.5411306 15.7526316 32.0927144 16.1412281 32.4848441 16.5789474 32.7062378 16.8263158 32.5204922 17.0973684 32.1893397 17.5789474 32.6865375 17.9122807 32.9670322 18.1008772 32.8582115 18.4070175 32.6658991 18.95 33.2353314 19.1570175 33.5571028 19.2736842 33.5336501 19.595614 33.4914352 20.1657895 34.0983918 20.2342105 34.4398635 20.2736842 34.5027169 20.5903509 34.6143519 21.1526316 35.2203704 21.0780702 35.5627802 21.0359649 35.707249 21.3280702 35.9642909 21.845614 36.531847 21.6324561 36.8517422 21.5114035 37.0703216 21.7614035 37.4577607 22.204386 37.950268 21.8666667 38.2279483 21.6754386 38.5056287 21.8666667 38.9971979 22.204386 39.385575 21.7614035 39.6041545 21.5114035 39.9240497 21.6324561 40.4906676 21.845614 40.7486477 21.3280702 40.8931165 21.0359649 41.2345882 21.0780702 41.8415448 21.1526316 41.9531798 20.5903509 42.015095 20.2736842 42.3575049 20.2342105 42.9653996 20.1657895 42.9241228 19.5947368 42.9006701 19.2736842 43.2215034 19.1561404 43.7899976 18.95 43.5976852 18.4070175 43.4879264 18.1008772 43.7684211 17.9131579 44.2674951 17.5789474 43.9363426 17.0973684 43.750597 16.8263158 43.9710526 16.5789474"></polygon>
                    <path d="M46.6540448,16.9973684 L47.5902778,15.9508772 L46.5208333,15.0219298 L47.1493665,13.7903509 L45.8669712,13.1394737 L46.148404,11.8008772 L44.7327973,11.4692982 L44.6493056,10.1070175 L43.1896077,10.1140351 L42.7458821,8.81403509 L41.3340278,9.16052632 L40.5591496,8.00438596 L39.2851974,8.66842105 L38.2270102,7.72894737 L37.1688231,8.66842105 L35.8939327,8.00438596 L35.1190546,9.16052632 L33.7081384,8.81403509 L33.2644128,10.1140351 L31.8047149,10.1070175 L31.7212232,11.4692982 L30.3056165,11.8008772 L30.5870492,13.1394737 L29.304654,13.7903509 L29.9331871,15.0219298 L28.8637427,15.9508772 L29.7999756,16.9973684 L29.0119639,18.145614 L30.1967958,18.9412281 L29.7380604,20.2368421 L31.0973806,20.7315789 L30.997941,22.0929825 L32.4463816,22.2570175 L32.7118665,23.5982456 L34.1584308,23.4201754 L34.7728923,24.6578947 L36.1265838,24.1482456 L37.0506213,25.204386 L38.2260721,24.3964912 L39.402461,25.204386 L40.3255604,24.1482456 L41.6792519,24.6578947 L42.2927753,23.4201754 L43.7393397,23.5982456 L44.0048246,22.2570175 L45.4532651,22.0929825 L45.3547636,20.7315789 L46.7140838,20.2368421 L46.2553484,18.9412281 L47.4401803,18.145614 L46.6540448,16.9973684 L46.6540448,16.9973684 Z M44.9016569,17.6921053 L44.0423489,18.2692982 L44.3744396,19.2070175 L43.3913012,19.5649123 L43.4625975,20.5517544 L42.4128533,20.6701754 L42.2205409,21.6412281 L41.172673,21.5122807 L40.7280093,22.4078947 L39.7476852,22.0385965 L39.0778752,22.804386 L38.2270102,22.2192982 L37.3761452,22.804386 L36.7063353,22.0385965 L35.7260112,22.4078947 L35.2813475,21.5122807 L34.2334795,21.6412281 L34.040229,20.6701754 L32.991423,20.5517544 L33.0636574,19.5657895 L32.0795809,19.2070175 L32.4116715,18.2692982 L31.5523635,17.6929825 L32.123672,16.8614035 L31.4454191,16.1035088 L32.2193592,15.4315789 L31.7643762,14.5394737 L32.6931043,14.0684211 L32.4895346,13.0991228 L33.5148879,12.8587719 L33.5749269,11.8719298 L34.6312378,11.877193 L34.9520712,10.9359649 L35.973672,11.1868421 L36.5355994,10.35 L37.4586988,10.8307018 L38.225134,10.1508772 L38.9906311,10.8307018 L39.9137305,10.35 L40.4747198,11.1868421 L41.4981969,10.9359649 L41.8190302,11.877193 L42.8753411,11.8719298 L42.9353801,12.8587719 L43.9616715,13.0991228 L43.7571637,14.0684211 L44.6858918,14.5394737 L44.2309089,15.4315789 L45.0048489,16.1035088 L44.3275341,16.8605263 L44.9016569,17.6921053 L44.9016569,17.6921053 Z" id="Shape"></path>
                    <path d="M25.7980019,39.4736842 L51.1269493,39.4736842 C51.6447856,39.4736842 52.0650585,39.8657895 52.0650585,40.3508772 C52.0650585,40.8359649 51.6447856,41.2280702 51.1269493,41.2280702 L25.7980019,41.2280702 C25.2792276,41.2280702 24.8598928,40.8359649 24.8598928,40.3508772 C24.8598928,39.8657895 25.2792276,39.4736842 25.7980019,39.4736842 L25.7980019,39.4736842 Z" id="Shape"></path>
                    <path d="M22.9836745,34.2105263 L53.9412768,34.2105263 C54.4591131,34.2105263 54.879386,34.6026316 54.879386,35.0877193 C54.879386,35.572807 54.4591131,35.9649123 53.9412768,35.9649123 L22.9836745,35.9649123 C22.4649001,35.9649123 22.0455653,35.572807 22.0455653,35.0877193 C22.0455653,34.6026316 22.4649001,34.2105263 22.9836745,34.2105263 L22.9836745,34.2105263 Z" id="Shape"></path>
                    <path d="M18.2931287,28.9473684 L58.6318226,28.9473684 C59.1496589,28.9473684 59.5699318,29.3394737 59.5699318,29.8245614 C59.5699318,30.3096491 59.1496589,30.7017544 58.6318226,30.7017544 L18.2931287,30.7017544 C17.7743543,30.7017544 17.3550195,30.3096491 17.3550195,29.8245614 C17.3550195,29.3394737 17.7743543,28.9473684 18.2931287,28.9473684 L18.2931287,28.9473684 Z" id="Shape"></path>
                    <path d="M73.1725146,50 L3.75243665,50 C1.68296784,50 0,48.4263158 0,46.4912281 L0,3.50877193 C0,1.57368421 1.68296784,0 3.75243665,0 L73.1725146,0 C75.2419834,0 76.9249513,1.57368421 76.9249513,3.50877193 L76.9249513,46.4912281 C76.9249513,48.4263158 75.2419834,50 73.1725146,50 L73.1725146,50 Z M4.34615385,2.75 C3.328,2.75 2.5,3.51160377 2.5,4.44811321 L2.5,46.0518868 C2.5,46.9883962 3.328,47.75 4.34615385,47.75 L72.6538462,47.75 C73.672,47.75 74.5,46.9883962 74.5,46.0518868 L74.5,4.44811321 C74.5,3.51160377 73.672,2.75 72.6538462,2.75 L4.34615385,2.75 L4.34615385,2.75 Z" id="Shape"></path>
                </g>
            </g>
        </g>
    </g>
</svg>