<?xml version="1.0" encoding="UTF-8" standalone="no"?>
<svg width="44px" height="53px" viewBox="0 0 44 53" version="1.1" xmlns="http://www.w3.org/2000/svg" xmlns:xlink="http://www.w3.org/1999/xlink">
    <!-- Generator: Sketch 3.7.1 (28215) - http://www.bohemiancoding.com/sketch -->
    <title>noun_216965_Do</title>
    <desc>Created with Sketch.</desc>
    <defs></defs>
    <g id="Style-Guide" stroke="none" stroke-width="1" fill="none" fill-rule="evenodd">
        <g id="Icons" transform="translate(-795.000000, -296.000000)" fill="#EEFCFF">
            <g id="noun_216965_Do" transform="translate(795.000000, 295.000000)">
                <g id="Group" transform="translate(0.000000, 0.762587)">
                    <path d="M11.9565217,0.433065217 C11.2962086,0.433131239 10.7609356,0.968404278 10.7608696,1.62871739 L10.7608696,6.41132609 C10.7609356,7.0716392 11.2962086,7.60691224 11.9565217,7.60697826 L31.0869565,7.60697826 C31.7472696,7.60691224 32.2825427,7.0716392 32.2826087,6.41132609 L32.2826087,1.62871739 C32.2825427,0.968404278 31.7472696,0.433131239 31.0869565,0.433065217 L11.9565217,0.433065217 L11.9565217,0.433065217 Z M13.1521739,2.82436957 L29.8913043,2.82436957 L29.8913043,5.21567391 L13.1521739,5.21567391 L13.1521739,2.82436957 L13.1521739,2.82436957 Z" id="Shape"></path>
                    <path d="M1.19565217,2.82436957 C0.535339061,2.82443559 6.60214086e-05,3.35970863 0,4.02002174 L0,51.8461087 C6.60214085e-05,52.5064218 0.535339061,53.0416948 1.19565217,53.0417609 L41.8478261,53.0417609 C42.5081392,53.0416948 43.0434122,52.5064218 43.0434783,51.8461087 L43.0434783,4.02002174 C43.0434122,3.35970863 42.5081392,2.82443559 41.8478261,2.82436957 L31.6847826,2.82436957 C31.2535875,2.81827139 30.8525114,3.04481829 30.6351342,3.41726102 C30.4177571,3.78970374 30.4177571,4.25033974 30.6351342,4.62278246 C30.8525114,4.99522519 31.2535875,5.22177209 31.6847826,5.21567391 L40.6521739,5.21567391 L40.6521739,50.6504565 L2.39130435,50.6504565 L2.39130435,5.21567391 L11.3586957,5.21567391 C11.7898908,5.22177209 12.1909668,4.99522519 12.408344,4.62278246 C12.6257212,4.25033974 12.6257212,3.78970374 12.408344,3.41726102 C12.1909668,3.04481829 11.7898908,2.81827139 11.3586957,2.82436957 L1.19565217,2.82436957 L1.19565217,2.82436957 Z" id="Shape"></path>
                    <path d="M31.0514636,19.5639783 C30.7409214,19.5732187 30.4461732,19.7030264 30.2296596,19.9259022 L16.7492708,33.4151304 L12.8176854,29.4822717 C12.5177275,29.1705148 12.0728084,29.0451605 11.6542833,29.1544876 C11.2357583,29.2638147 10.9089194,29.5907676 10.7996447,30.0094243 C10.6903701,30.4280809 10.815707,30.8731288 11.1273836,31.173163 L15.9017853,35.9513478 C16.1260599,36.1762181 16.4305583,36.3025934 16.7481038,36.3025934 C17.0656493,36.3025934 17.3701478,36.1762181 17.5944223,35.9513478 L31.9199614,21.6167935 C32.2735136,21.2730384 32.3798235,20.7474238 32.1876636,20.2932272 C31.9955037,19.8390306 31.544296,19.5494313 31.0514636,19.5639783 L31.0514636,19.5639783 Z" id="Shape"></path>
                </g>
            </g>
        </g>
    </g>
</svg>