<svg xmlns="http://www.w3.org/2000/svg" xmlns:xlink="http://www.w3.org/1999/xlink" version="1.1" x="0px" y="0px" viewBox="0 0 100 100" enable-background="new 0 0 100 100" xml:space="preserve"><path d="M32.7,64.3h2.5v5.7c0,0.7,0.4,1.4,1.1,1.7c0.3,0.1,0.6,0.2,0.9,0.2c0.4,0,0.8-0.1,1.1-0.4l10-7.3h19c4.2,0,7.6-3.4,7.6-7.6  V35.6c0-4.2-3.4-7.6-7.6-7.6H32.7c-4.2,0-7.6,3.4-7.6,7.6v21.1C25.1,60.9,28.5,64.3,32.7,64.3z M29,35.6c0-2.1,1.7-3.8,3.8-3.8h34.6  c2.1,0,3.8,1.7,3.8,3.8v21.1c0,2.1-1.7,3.8-3.8,3.8H47.7c-0.4,0-0.8,0.1-1.1,0.4l-7.5,5.4v-3.9c0-1.1-0.9-1.9-1.9-1.9h-4.5  c-2.1,0-3.8-1.7-3.8-3.8V35.6z M47.7,46.9c0-1.3,1-2.3,2.3-2.3s2.3,1,2.3,2.3s-1,2.3-2.3,2.3S47.7,48.2,47.7,46.9z M55.6,46.9  c0-1.3,1-2.3,2.3-2.3s2.3,1,2.3,2.3s-1,2.3-2.3,2.3S55.6,48.2,55.6,46.9z M39.9,46.9c0-1.3,1-2.3,2.3-2.3c1.3,0,2.3,1,2.3,2.3  s-1,2.3-2.3,2.3C40.9,49.2,39.9,48.2,39.9,46.9z"></path></svg>