<svg xmlns="http://www.w3.org/2000/svg" xmlns:xlink="http://www.w3.org/1999/xlink" version="1.1" x="0px" y="0px" viewBox="0 0 100 100" enable-background="new 0 0 100 100" xml:space="preserve"><g><g><path d="M84.8,42.6L76,39.2l3.9-8.6c0.7-1.4,0.3-3.4-0.8-4.5l-5.2-5.2c-1.1-1.1-3.1-1.5-4.5-0.8L60.8,24l-3.3-8.9    c-0.6-1.5-2.2-2.6-3.8-2.6h-7.3c-1.6,0-3.2,1.1-3.8,2.6L39.2,24l-8.6-3.9c-1.4-0.6-3.4-0.3-4.5,0.8l-5.2,5.2    c-1.1,1.1-1.5,3.1-0.8,4.5l3.9,8.6l-8.9,3.3c-1.5,0.6-2.6,2.2-2.6,3.8v7.4c0,1.6,1.1,3.2,2.6,3.8l8.9,3.3l-3.9,8.6    c-0.7,1.4-0.3,3.4,0.8,4.5l5.2,5.2c1.1,1.1,3.1,1.5,4.5,0.8l8.6-3.9l3.3,8.9c0.6,1.5,2.2,2.6,3.8,2.6h7.3c1.6,0,3.2-1.1,3.8-2.6    l3.3-8.9l8.6,3.9c0.5,0.2,1,0.3,1.6,0.3c1.1,0,2.2-0.4,2.9-1.2l5.2-5.2c1.1-1.1,1.5-3.1,0.8-4.5L76,60.8l8.9-3.3    c1.5-0.6,2.6-2.2,2.6-3.8v-7.4C87.4,44.7,86.3,43.1,84.8,42.6z M83.5,54l-9.3,3.5c-0.8,0.3-1.5,1-1.9,1.8c-0.3,0.8-0.3,1.8,0,2.6    l4.1,9c0,0.1,0,0.3-0.1,0.4l-5.2,5.2c0,0-0.2,0.1-0.4,0.1l-9-4.1c-0.4-0.2-0.9-0.3-1.4-0.3c-1.4,0-2.6,0.8-3,2.1L54,83.5    c0,0.1-0.2,0.2-0.3,0.2l-7.3,0c-0.1,0-0.3-0.1-0.3-0.2l-3.5-9.3c-0.5-1.3-1.7-2.1-3-2.1c-0.5,0-0.9,0.1-1.4,0.3L29,76.5    c-0.1,0-0.3-0.1-0.3-0.1l-5.2-5.2c-0.1-0.1-0.1-0.3-0.1-0.4l4.1-9c0.4-0.8,0.4-1.8,0.1-2.6c-0.3-0.8-1-1.5-1.9-1.8L16.5,54    c-0.1,0-0.2-0.2-0.2-0.3l0-7.3c0-0.1,0.1-0.3,0.2-0.3l9.3-3.5c0.8-0.3,1.5-1,1.9-1.8c0.3-0.8,0.3-1.8-0.1-2.6l-4.1-9    c0-0.1,0-0.3,0.1-0.4l5.2-5.2c0,0,0.2-0.1,0.4-0.1l9,4.1c0.4,0.2,0.9,0.3,1.4,0.3c1.4,0,2.5-0.8,3-2.1l3.5-9.3    c0-0.1,0.2-0.2,0.3-0.2l7.3,0c0.1,0,0.3,0.1,0.3,0.2l3.5,9.3c0.5,1.3,1.7,2.1,3,2.1c0.5,0,0.9-0.1,1.4-0.3l9.1-4.1    c0.1,0,0.3,0.1,0.3,0.1l5.2,5.2c0.1,0.1,0.1,0.3,0.1,0.4l-4.1,9c-0.4,0.8-0.4,1.8,0,2.6c0.3,0.8,1,1.5,1.9,1.8l9.3,3.5    c0.1,0,0.2,0.2,0.2,0.3l0,7.3C83.8,53.8,83.6,54,83.5,54z"></path><path d="M50,38c-6.6,0-12,5.4-12,12c0,6.6,5.4,12,12,12c6.6,0,12-5.4,12-12C62,43.4,56.6,38,50,38z M50,58.3    c-4.6,0-8.3-3.7-8.3-8.3c0-4.6,3.7-8.3,8.3-8.3c4.6,0,8.3,3.7,8.3,8.3C58.3,54.6,54.6,58.3,50,58.3z"></path></g></g></svg>