<svg xmlns="http://www.w3.org/2000/svg" xmlns:xlink="http://www.w3.org/1999/xlink" version="1.1" x="0px" y="0px" viewBox="0 0 24 24" enable-background="new 0 0 24 24" xml:space="preserve"><path d="M10.875,22.878C10.976,22.959,11.098,23,11.221,23s0.244-0.041,0.346-0.122c0.336-0.271,8.219-6.712,8.219-13.739  c0-7.267-7.89-8.005-8.014-8.014l-1.146,0.002c-0.08,0.006-7.969,0.745-7.969,8.012C2.656,16.166,10.539,22.607,10.875,22.878z   M10.67,2.226l1.055-0.002c0.283,0.024,6.959,0.667,6.959,6.915c0,5.702-5.951,11.267-7.463,12.589  c-1.513-1.321-7.464-6.88-7.464-12.589C3.757,2.891,10.433,2.248,10.67,2.226z"></path><path d="M15.968,9.346c0-2.561-2.084-4.644-4.644-4.644c-2.561,0-4.644,2.083-4.644,4.644c0,2.56,2.083,4.644,4.644,4.644  C13.884,13.989,15.968,11.905,15.968,9.346z M7.781,9.346c0-1.954,1.59-3.543,3.543-3.543s3.542,1.589,3.542,3.543  c0,1.953-1.589,3.542-3.542,3.542S7.781,11.298,7.781,9.346z"></path></svg>