<svg xmlns="http://www.w3.org/2000/svg" xmlns:xlink="http://www.w3.org/1999/xlink" xmlns:sketch="http://www.bohemiancoding.com/sketch/ns" viewBox="0 0 100 100" version="1.1" x="0px" y="0px"><title>wheelchair accessible</title><desc>Created with Sketch.</desc><g stroke="none" stroke-width="1" fill="none" fill-rule="evenodd" sketch:type="MSPage"><g sketch:type="MSArtboardGroup" fill="#000000"><path d="M43.3690959,23.7026648 L44.2073417,23.7026648 C49.940232,23.7026648 54.5876578,28.3507858 54.5876578,34.0816035 L54.5876578,50.1269907 C57.4829493,51.520549 60.0829714,53.4302076 62.2684117,55.7366541 L77.1311283,55.7366541 C79.9971222,55.7366541 82.3204692,58.0600012 82.3204692,60.9259951 L82.3204684,88.3393234 C82.3204683,91.2053172 79.9971212,93.5286642 77.1311274,93.5286641 C74.2651336,93.528664 71.9417867,91.2053169 71.9417868,88.3393231 L71.9417874,66.0903396 L68.3125287,66.0943658 C69.0549658,68.522899 69.454418,71.1011965 69.454418,73.772791 C69.454418,88.2576786 57.7120965,100 43.227209,100 C28.7423214,100 17,88.2576786 17,73.772791 C17,65.4050065 20.9187241,57.952489 27.0211031,53.1503078 L30.0777914,57.3574783 C30.4460029,57.8642779 30.8716891,58.3046179 31.3394169,58.6760539 C26.8771948,62.1946282 24.0126227,67.6491813 24.0126227,73.772791 C24.0126227,84.384714 32.615286,92.9873773 43.227209,92.9873773 C53.8391319,92.9873773 62.4417952,84.384714 62.4417952,73.772791 C62.4417952,63.1608681 53.8391319,54.5582048 43.227209,54.5582048 C42.8659814,54.5582048 42.507082,54.5681727 42.1507708,54.5878486 C42.4624536,52.8471769 42.0920812,50.9870037 40.9705869,49.4433992 L33.8520471,39.6455698 L32.1556452,40.878078 L39.2685876,50.6799741 C40.7710587,52.7479482 40.312628,55.642366 38.2446539,57.1448372 C36.1766797,58.6473084 33.2822619,58.1888776 31.7797907,56.1209035 L21.9407863,42.5786756 C20.4383151,40.5107015 20.8967458,37.6162837 22.96472,36.1138125 L36.641626,26.1769587 C38.453379,24.6339407 40.8023352,23.7026648 43.3690959,23.7026648 Z M44.769986,19.6353436 C50.1921364,19.6353436 54.5876578,15.2398222 54.5876578,9.81767181 C54.5876578,4.39552139 50.1921364,0 44.769986,0 C39.3478356,0 34.9523142,4.39552139 34.9523142,9.81767181 C34.9523142,15.2398222 39.3478356,19.6353436 44.769986,19.6353436 L44.769986,19.6353436 Z" sketch:type="MSShapeGroup"></path></g></g></svg>