<?xml version="1.0" encoding="utf-8"?>
<!-- Generator: Adobe Illustrator 19.2.1, SVG Export Plug-In . SVG Version: 6.00 Build 0)  -->
<svg version="1.1" id="Layer_1" xmlns="http://www.w3.org/2000/svg" xmlns:xlink="http://www.w3.org/1999/xlink" x="0px" y="0px"
	 viewBox="0 0 100 100" style="enable-background:new 0 0 100 100;" xml:space="preserve">
<path d="M50.2,100c-18.6,0-33.7-15.1-33.7-33.7c0-24.8,17.1-47.9,27.2-59.6C45.1,5.3,46.2,4,47.2,3l3-3l3.1,3.1c1,1,2.1,2.3,3.4,3.7
	c3.6,4.1,8.9,10.6,13.7,18.5c8.7,14.1,13.3,27.7,13.5,40.2l0,0.8c0,4.3-0.8,8.4-2.3,12.3C76.5,91.6,64.2,100,50.2,100z M50.2,7
	c-0.8,0.9-1.7,1.9-2.7,3c-9.7,11.1-26,33.2-26,56.3C21.6,82.1,34.4,95,50.2,95c11.9,0,22.4-7.2,26.7-18.3c1.3-3.3,2-6.8,2-10.4
	l0-0.8c-0.2-11.7-4.5-24.3-12.7-37.7C61.5,20.3,56.4,14,53,10.1C52,8.9,51,7.9,50.2,7z"/>
<path d="M33.5,64.5"/>
</svg>
