<svg xmlns="http://www.w3.org/2000/svg" xmlns:xlink="http://www.w3.org/1999/xlink" version="1.1" x="0px" y="0px" viewBox="0 0 90 90" enable-background="new 0 0 90 90" xml:space="preserve"><path d="M43.8,75.5C28.7,75.5,18,65,18,50.6c0-7.6,4.6-15.9,4.8-16.2c0.4-0.7,1.2-1.1,2-1c0.8,0.1,1.5,0.7,1.7,1.5  c0,0,1.2,4.7,2.9,7.2c1.1,1.7,2.2,2.9,3.5,3.8c-0.8-3.7-1.5-9.2-0.4-14.8C35.3,15.5,47.5,11.8,48,11.7c0.7-0.2,1.4,0,1.9,0.4  c0.5,0.5,0.7,1.2,0.6,1.9c0,0.1-2,11,2.2,20.3c0.4,0.8,0.9,1.8,1.5,2.8c0.2-1.3,0.4-2.8,0.8-4.2c1.6-5.5,5.6-7.4,5.8-7.5  c0.7-0.3,1.5-0.2,2.1,0.3c0.6,0.5,0.9,1.2,0.7,1.9c0,0.1-0.6,3.9,2.6,9.2c2.9,4.8,3.7,7.9,3.7,13.9C70,65,59,75.5,43.8,75.5z   M24.2,40.8c-1.1,2.8-2.2,6.5-2.2,9.9c0,12.1,9,20.9,21.8,20.9c12.9,0,22.2-8.8,22.2-20.9c0-5.2-0.6-7.6-3.1-11.8  c-1.7-2.8-2.5-5.3-2.9-7.3c-0.4,0.6-0.8,1.4-1,2.4c-1.2,4.3-0.9,9.2-0.9,9.3c0.1,0.9-0.5,1.7-1.3,2c-0.8,0.3-1.8,0-2.3-0.7  c-0.2-0.2-3.7-5.2-5.3-8.6c-3.3-7-3.2-14.6-2.9-19c-3.3,1.9-8.4,6.2-10,14.9c-1.6,8.5,1.5,17,1.5,17.1c0.3,0.7,0.1,1.5-0.4,2  c-0.5,0.6-1.2,0.8-2,0.6c-0.2-0.1-5.9-1.5-9.5-7.3C25.3,43.2,24.7,42,24.2,40.8z"></path></svg>