<svg xmlns="http://www.w3.org/2000/svg" xmlns:xlink="http://www.w3.org/1999/xlink" version="1.1" x="0px" y="0px" viewBox="0 0 100 100" enable-background="new 0 0 100 100" xml:space="preserve"><path d="M50,8.6c7.2,0,13.9,2.9,19.1,7.9c5,5,7.9,11.9,7.9,19.1c0,0.4,0,0.5,0,0.9c-0.2,2.7-0.5,5.6-1.6,8.1l0,0l0,0  c-4.9,16-19.1,36.2-25.2,44.5C43.8,81,29.6,60.6,24.8,44.6l0,0l0,0c-0.9-2.5-1.4-5.2-1.6-8.1c0-0.4,0-0.7,0-0.9  C23.1,20.7,35.2,8.6,50,8.6 M50,5C33,5,19.5,18.7,19.5,35.4c0,0.4,0,0.7,0,1.1c0.2,3.2,0.7,6.3,1.8,9.2C27.8,67.1,50,95,50,95  s22.1-27.9,28.8-49.3c1.1-2.9,1.6-5.9,1.8-9.2c0-0.4,0-0.7,0-1.1C80.4,18.7,66.9,5,50,5L50,5z"></path><circle cx="50" cy="32.9" r="8.1"></circle></svg>