<svg xmlns="http://www.w3.org/2000/svg" xmlns:xlink="http://www.w3.org/1999/xlink" version="1.1" x="0px" y="0px" viewBox="0 0 24 24" enable-background="new 0 0 24 24" xml:space="preserve"><path d="M19.558,4.56c-0.071-0.152-0.225-0.249-0.393-0.249h-5.211V2.954c0-0.24-0.194-0.434-0.434-0.434H8.418V1.434  C8.418,1.194,8.224,1,7.983,1H6.247c-0.24,0-0.434,0.194-0.434,0.434V2.52H4.835c-0.24,0-0.435,0.194-0.435,0.434v7.979  c0,0.24,0.194,0.435,0.435,0.435h0.977V22.44c0,0.24,0.194,0.435,0.434,0.435h1.737c0.24,0,0.435-0.194,0.435-0.435V11.368h0.326  v1.737c0,0.24,0.194,0.435,0.434,0.435h9.987c0.168,0,0.321-0.097,0.393-0.249c0.072-0.151,0.051-0.331-0.057-0.46l-3.193-3.905  l3.193-3.905C19.608,4.89,19.63,4.711,19.558,4.56z M6.681,1.869h0.869V2.52H6.681V1.869z M5.27,3.388h7.816v7.111H5.27V3.388z   M7.549,22.007H6.681V11.368h0.869V22.007z M15.41,8.65c-0.131,0.16-0.131,0.391,0,0.55l2.839,3.471H9.612v-1.303h3.909  c0.239,0,0.434-0.194,0.434-0.435V5.18h4.295L15.41,8.65z"></path></svg>