<svg xmlns="http://www.w3.org/2000/svg" xmlns:xlink="http://www.w3.org/1999/xlink" version="1.1" x="0px" y="0px" viewBox="0 0 100 100" enable-background="new 0 0 100 100" xml:space="preserve"><path fill="none" d="M50,96.041c25.387,0,46.041-20.654,46.041-46.041S75.387,3.959,50,3.959C24.613,3.959,3.959,24.613,3.959,50  S24.613,96.041,50,96.041z M31.675,40.491c0.383-0.383,1.002-0.383,1.385,0L50,57.431l16.94-16.939c0.382-0.383,1.002-0.383,1.385,0  s0.383,1.002,0,1.385L50.692,59.509C50.501,59.7,50.25,59.796,50,59.796s-0.501-0.096-0.692-0.287L31.675,41.876  C31.292,41.493,31.292,40.874,31.675,40.491z"></path><path d="M49.308,59.509C49.499,59.7,49.75,59.796,50,59.796s0.501-0.096,0.692-0.287l17.633-17.633c0.383-0.383,0.383-1.002,0-1.385  s-1.003-0.383-1.385,0L50,57.431L33.06,40.491c-0.383-0.383-1.002-0.383-1.385,0s-0.383,1.002,0,1.385L49.308,59.509z"></path><path d="M50,98c26.467,0,48-21.533,48-48S76.467,2,50,2C23.533,2,2,23.533,2,50S23.533,98,50,98z M50,3.959  c25.387,0,46.041,20.654,46.041,46.041S75.387,96.041,50,96.041C24.613,96.041,3.959,75.387,3.959,50S24.613,3.959,50,3.959z"></path></svg>