<svg xmlns="http://www.w3.org/2000/svg" xmlns:xlink="http://www.w3.org/1999/xlink" version="1.1" x="0px" y="0px" viewBox="0 0 100 100" enable-background="new 0 0 100 100" xml:space="preserve"><g><path fill="#000000" d="M94.612,19H5.417c-1.87,0-3.387,1.517-3.387,3.387v54.227C2.03,78.483,3.547,80,5.417,80h89.195   C96.482,80,98,78.483,98,76.613V22.387C98,20.517,96.482,19,94.612,19z M94.581,76.581H5.449V22.418h89.132V76.581z"></path><path fill="#000000" d="M37,61c0.896-3.541-1.444-5.494-5.148-6.348c-3.624-0.834-6.121-2.48-3.852-4.75   c6.634-6.635,1.622-14.709-4.527-14.709S12.366,43.268,19,49.902c2.27,2.27-0.282,3.916-3.907,4.75   C11.39,55.506,9.105,57.459,10,61H37z"></path><rect x="43" y="57" fill="#000000" width="47" height="4"></rect><rect x="43" y="47" fill="#000000" width="47" height="4"></rect><rect x="43" y="37" fill="#000000" width="47" height="4"></rect></g></svg>