<svg xmlns="http://www.w3.org/2000/svg" xmlns:xlink="http://www.w3.org/1999/xlink" version="1.1" x="0px" y="0px" viewBox="0 0 48 48" enable-background="new 0 0 48 48" xml:space="preserve"><g><path fill="#000000" d="M37.5,47.5h-27v-47h27V47.5z M12.5,45.5h23v-43h-23V45.5z"></path><path fill="#000000" d="M47.5,47.5h-12v-39h12V47.5z M37.5,45.5h8v-35h-8V45.5z"></path><path fill="#000000" d="M12.5,47.5h-12v-39h12V47.5z M2.5,45.5h8v-35h-8V45.5z"></path><path fill="#000000" d="M30,47.5H18v-10h12V47.5z M20,45.5h8v-6h-8V45.5z"></path><rect x="40.5" y="13.5" fill="#000000" width="2" height="5"></rect><g><rect x="31" y="7.5" fill="#000000" width="2" height="5"></rect><rect x="25.7" y="7.5" fill="#000000" width="2" height="5"></rect><rect x="20.3" y="7.5" fill="#000000" width="2" height="5"></rect><rect x="15" y="7.5" fill="#000000" width="2" height="5"></rect></g><g><rect x="31" y="17.5" fill="#000000" width="2" height="5"></rect><rect x="25.7" y="17.5" fill="#000000" width="2" height="5"></rect><rect x="20.3" y="17.5" fill="#000000" width="2" height="5"></rect><rect x="15" y="17.5" fill="#000000" width="2" height="5"></rect></g><g><rect x="31" y="27.5" fill="#000000" width="2" height="5"></rect><rect x="25.7" y="27.5" fill="#000000" width="2" height="5"></rect><rect x="20.3" y="27.5" fill="#000000" width="2" height="5"></rect><rect x="15" y="27.5" fill="#000000" width="2" height="5"></rect></g><rect x="40.5" y="21.5" fill="#000000" width="2" height="5"></rect><rect x="40.5" y="29.5" fill="#000000" width="2" height="5"></rect><rect x="40.5" y="37.5" fill="#000000" width="2" height="5"></rect><rect x="5.5" y="13.5" fill="#000000" width="2" height="5"></rect><rect x="5.5" y="21.5" fill="#000000" width="2" height="5"></rect><rect x="5.5" y="29.5" fill="#000000" width="2" height="5"></rect><rect x="5.5" y="37.5" fill="#000000" width="2" height="5"></rect></g></svg>