<svg xmlns="http://www.w3.org/2000/svg" xmlns:xlink="http://www.w3.org/1999/xlink" version="1.1" x="0px" y="0px" viewBox="0 0 90 90" enable-background="new 0 0 90 90" xml:space="preserve"><polygon fill="#000000" points="51.289,35.401 50.812,34.958 50.543,34.708 50.701,34.376 50.981,33.788 50.409,33.477   50.086,33.302 50.157,32.941 50.283,32.301 49.649,32.143 49.293,32.053 49.272,31.687 49.235,31.036 48.584,31.039 48.216,31.041   48.104,30.691 47.907,30.07 47.275,30.235 46.92,30.329 46.725,30.018 46.379,29.466 45.811,29.783 45.489,29.961 45.223,29.708   44.75,29.26 44.277,29.708 44.011,29.961 43.69,29.783 43.121,29.465 42.774,30.018 42.579,30.329 42.224,30.235 41.593,30.07   41.396,30.691 41.284,31.041 40.917,31.039 40.265,31.036 40.227,31.687 40.206,32.053 39.85,32.143 39.217,32.301 39.343,32.941   39.414,33.302 39.09,33.477 38.518,33.788 38.798,34.376 38.957,34.708 38.688,34.958 38.21,35.401 38.628,35.9 38.864,36.182   38.666,36.491 38.313,37.04 38.843,37.42 39.142,37.635 39.026,37.984 38.821,38.603 39.428,38.839 39.771,38.972 39.746,39.339   39.701,39.989 40.348,40.067 40.712,40.112 40.779,40.473 40.898,41.114 41.544,41.029 41.909,40.981 42.063,41.314 42.337,41.904   42.942,41.661 43.283,41.523 43.516,41.808 43.929,42.313 44.454,41.928 44.75,41.71 45.046,41.928 45.57,42.313 45.984,41.808   46.217,41.523 46.558,41.661 47.162,41.904 47.437,41.314 47.591,40.981 47.955,41.029 48.602,41.114 48.721,40.473 48.787,40.112   49.152,40.067 49.8,39.989 49.756,39.338 49.731,38.972 50.073,38.838 50.679,38.603 50.474,37.984 50.357,37.635 50.656,37.421   51.188,37.04 50.835,36.491 50.637,36.182 50.872,35.9 "></polygon><path fill="#000000" d="M53.732,36.377l0.998-1.193l-1.14-1.059l0.67-1.404l-1.367-0.742l0.3-1.526l-1.509-0.378l-0.089-1.553  l-1.556,0.008l-0.473-1.482l-1.505,0.395l-0.826-1.318l-1.358,0.757l-1.128-1.071l-1.128,1.071l-1.359-0.757l-0.826,1.318  l-1.504-0.395l-0.473,1.482l-1.556-0.008l-0.089,1.553l-1.509,0.378l0.3,1.526l-1.367,0.742l0.67,1.404l-1.14,1.059l0.998,1.193  l-0.84,1.309l1.263,0.907l-0.489,1.477l1.449,0.564l-0.106,1.552l1.544,0.187l0.283,1.529l1.542-0.203l0.655,1.411l1.443-0.581  l0.985,1.204l1.253-0.921l1.254,0.921l0.984-1.204l1.443,0.581l0.654-1.411l1.542,0.203l0.283-1.529l1.544-0.187l-0.105-1.552  l1.449-0.564l-0.489-1.477l1.263-0.907L53.732,36.377z M51.864,37.169l-0.916,0.658l0.354,1.069l-1.048,0.408l0.076,1.125  l-1.119,0.135l-0.205,1.107l-1.117-0.147l-0.474,1.021l-1.045-0.421l-0.714,0.873l-0.907-0.667l-0.907,0.667l-0.714-0.873  l-1.045,0.421l-0.474-1.021l-1.117,0.147l-0.206-1.107l-1.118-0.135l0.077-1.124l-1.049-0.409l0.354-1.069l-0.916-0.657l0.609-0.948  l-0.723-0.864l0.825-0.766l-0.485-1.017l0.99-0.537l-0.217-1.105l1.093-0.274l0.064-1.125l1.126,0.006l0.342-1.073l1.089,0.286  l0.599-0.954l0.984,0.548l0.817-0.775l0.816,0.775l0.984-0.548l0.598,0.954l1.091-0.286l0.342,1.073l1.126-0.006l0.064,1.125  l1.094,0.274l-0.218,1.105l0.99,0.537l-0.485,1.017l0.825,0.766l-0.722,0.863L51.864,37.169z"></path><path fill="#000000" d="M31.5,62h27c0.552,0,1,0.447,1,1s-0.448,1-1,1h-27c-0.553,0-1-0.447-1-1S30.947,62,31.5,62z"></path><path fill="#000000" d="M28.5,56h33c0.552,0,1,0.447,1,1s-0.448,1-1,1h-33c-0.553,0-1-0.447-1-1S27.947,56,28.5,56z"></path><path fill="#000000" d="M23.5,50h43c0.552,0,1,0.447,1,1s-0.448,1-1,1h-43c-0.553,0-1-0.447-1-1S22.947,50,23.5,50z"></path><path fill="#000000" d="M82,74H8c-2.206,0-4-1.794-4-4V21c0-2.206,1.794-4,4-4h74c2.206,0,4,1.794,4,4v49C86,72.206,84.206,74,82,74  z M8,19c-1.103,0-2,0.897-2,2v49c0,1.103,0.897,2,2,2h74c1.103,0,2-0.897,2-2V21c0-1.103-0.897-2-2-2H8z"></path></svg>