<svg xmlns:x="http://ns.adobe.com/Extensibility/1.0/" xmlns:i="http://ns.adobe.com/AdobeIllustrator/10.0/" xmlns:graph="http://ns.adobe.com/Graphs/1.0/" xmlns="http://www.w3.org/2000/svg" xmlns:xlink="http://www.w3.org/1999/xlink" xmlns:a="http://ns.adobe.com/AdobeSVGViewerExtensions/3.0/" version="1.1" x="0px" y="0px" viewBox="0 0 100 100" enable-background="new 0 0 100 100" xml:space="preserve"><g><path d="M39.1254425,29.3652306 M54.7206879,30.5791855 M39.4116898,50.5634155l26.2666016-4.5576172   c0.2714844-0.0473633,0.4541016-0.3061523,0.40625-0.578125c-0.046875-0.2719727-0.3007812-0.4521484-0.578125-0.4072266   L39.2398148,49.578064c-0.2714844,0.0473633-0.4541016,0.3061523-0.40625,0.578125   c0.0419922,0.2431641,0.2529297,0.4145508,0.4912109,0.4145508C39.353096,50.5707397,39.3823929,50.5682983,39.4116898,50.5634155z    M42.1851273,66.5516968l26.2675781-4.5576172c0.1298828-0.0229492,0.2460938-0.0961914,0.3232422-0.2045898   c0.0761719-0.1083984,0.1064453-0.2431641,0.0830078-0.3735352l-1.7841797-10.2783203   c-0.046875-0.2724609-0.2988281-0.453125-0.578125-0.4072266l-26.2666016,4.5576172   c-0.2714844,0.0473633-0.4541016,0.3061523-0.40625,0.578125l1.7832031,10.2783203   c0.0224609,0.1308594,0.0957031,0.2470703,0.2041016,0.3232422c0.0849609,0.0600586,0.1855469,0.0913086,0.2880859,0.0913086   C42.1275101,66.559021,42.1558304,66.5565796,42.1851273,66.5516968z M66.1753616,51.8012085l1.6132812,9.2929688   L42.5064163,65.480896l-1.6123047-9.2929688L66.1753616,51.8012085z M59.3159866,63.5795288   c0.2714844-0.0473633,0.4541016-0.3061523,0.40625-0.578125l-1.5849609-9.1362305   c-0.046875-0.2719727-0.3056641-0.4545898-0.578125-0.4072266c-0.2714844,0.0473633-0.4541016,0.3061523-0.40625,0.578125   l1.5849609,9.1362305c0.0419922,0.2431641,0.2529297,0.4145508,0.4912109,0.4145508   C59.2573929,63.586853,59.2866898,63.5844116,59.3159866,63.5795288z M44.0025101,44.4974976   c1.8183594-0.3154297,3.4072266-1.3168945,4.4736328-2.8193359c1.0683594-1.5039062,1.4833984-3.3276367,1.1689453-5.1347656   c-0.5712891-3.2963867-3.4306641-5.6889668-6.7978516-5.6889668c-0.3974609,0-0.7998047,0.034668-1.1953125,0.1030273   c-1.8164062,0.3154297-3.4052734,1.3164082-4.4716797,2.8193378c-1.0683594,1.5039062-1.4833984,3.3271484-1.1699219,5.1328125   c0.5722656,3.2973633,3.4316406,5.690918,6.7978516,5.690918l0,0   C43.2056351,44.6005249,43.6070023,44.5658569,44.0025101,44.4974976z M48.6607132,36.7142944   c0.2675781,1.5429688-0.0869141,3.1000977-1,4.3847656c-0.9121094,1.2861328-2.2724609,2.1430664-3.8300781,2.4130859   c-0.3378906,0.0585938-0.6816406,0.0883789-1.0224609,0.0883789l0,0c-2.8789062,0-5.3242188-2.0449219-5.8134766-4.8618164   c-0.2666016-1.5415039,0.0878906-3.0976562,1.0009766-4.3828125c0.9130859-1.2861328,2.2724609-2.1430664,3.828125-2.4130878   c0.3378906-0.0585938,0.6826172-0.0883789,1.0234375-0.0883789C45.7271194,31.8544292,48.1714554,33.8983765,48.6607132,36.7142944   z M55.7495804,43.0228882l9.1357422-1.5854492c0.2714844-0.0473633,0.4541016-0.3061523,0.40625-0.578125   c-0.0478516-0.2724609-0.2988281-0.4526367-0.578125-0.4072266l-9.1357422,1.5854492   c-0.2714844,0.0473633-0.4541016,0.3061523-0.40625,0.578125c0.0419922,0.2431641,0.2529297,0.4145508,0.4912109,0.4145508   C55.6909866,43.0302124,55.7202835,43.027771,55.7495804,43.0228882z M54.7583694,37.312439l9.1367188-1.5849609   c0.2714844-0.0473633,0.4541016-0.3061523,0.40625-0.578125c-0.046875-0.2719727-0.3017578-0.4516602-0.578125-0.4072266   l-9.1367188,1.5849609c-0.2714844,0.0473633-0.4541016,0.3061523-0.40625,0.578125   c0.0419922,0.2431641,0.2529297,0.4145508,0.4912109,0.4145508C54.6997757,37.3197632,54.7290726,37.3173218,54.7583694,37.312439z    M53.7671585,31.6024761l9.1367188-1.5854492c0.2714844-0.0473633,0.4541016-0.3061523,0.40625-0.578125   c-0.046875-0.2719727-0.3027344-0.4545898-0.578125-0.4072266l-9.1367188,1.5854492   c-0.2714844,0.0473633-0.4541016,0.3061523-0.40625,0.578125c0.0419922,0.2431641,0.2529297,0.4145508,0.4912109,0.4145508   C53.7085648,31.6098003,53.7378616,31.6073589,53.7671585,31.6024761z M43.1402054,38.1522827l5.7099609-0.9907227   c0.2714844-0.0473633,0.4541016-0.3061523,0.40625-0.578125c-0.046875-0.2719727-0.3056641-0.4516602-0.578125-0.4072266   l-5.2167969,0.9052734l-0.90625-5.2177753c-0.046875-0.2724609-0.3066406-0.4526367-0.578125-0.4072266   c-0.2714844,0.0473633-0.4541016,0.3061523-0.40625,0.5781269l0.9912109,5.7104492   c0.0419922,0.2431641,0.2529297,0.4145508,0.4912109,0.4145508C43.0816116,38.1596069,43.1109085,38.1571655,43.1402054,38.1522827   z M37.4663773,73.2528687l36.5449219-6.3413086c0.2714844-0.0473633,0.4541016-0.3061523,0.40625-0.578125l-7.7285156-44.5395508   c-0.0224609-0.1308594-0.0957031-0.2470703-0.2041016-0.3232422c-0.1083984-0.0766602-0.2392578-0.1074219-0.3740234-0.0839844   l-36.5449219,6.3413086c-0.2714844,0.0473633-0.4541016,0.3061523-0.40625,0.578125l7.7285156,44.5395508   c0.0224609,0.1308594,0.0957031,0.2470703,0.2041016,0.3232422c0.0849609,0.0600586,0.1855469,0.0913086,0.2880859,0.0913086   C37.4087601,73.2601929,37.4370804,73.2577515,37.4663773,73.2528687z M65.7896194,22.4574566l7.5576172,43.5541992   l-35.5595703,6.1704102l-7.5576172-43.5541992L65.7896194,22.4574566z M33.6909866,78.6137085l35.4033203-6.1430664   c0.1298828-0.0224609,0.2460938-0.0961914,0.3232422-0.2045898c0.0761719-0.1083984,0.1064453-0.2431641,0.0830078-0.3735352   l-0.5947266-3.4262695c-0.0478516-0.2719727-0.2998047-0.4526367-0.578125-0.4072266   c-0.2714844,0.0473633-0.4541016,0.3061523-0.40625,0.578125l0.5087891,2.9335938l-34.4179688,5.972168l-7.359375-42.4121094   l2.9335938-0.5087891c0.2714844-0.0473633,0.4541016-0.3061523,0.40625-0.578125   c-0.046875-0.2724609-0.3017578-0.4541016-0.578125-0.4072266l-3.4257812,0.5942383   c-0.1298828,0.0224609-0.2460938,0.0961914-0.3232422,0.2045898c-0.0761719,0.1083984-0.1064453,0.2426758-0.0830078,0.3735352   l7.5302734,43.3974609c0.0419922,0.2431641,0.2529297,0.4145508,0.4912109,0.4145508   C33.6323929,78.6210327,33.6616898,78.6185913,33.6909866,78.6137085z"></path></g></svg>