<?xml version="1.0" encoding="utf-8"?>
<!-- Generator: Adobe Illustrator 19.2.1, SVG Export Plug-In . SVG Version: 6.00 Build 0)  -->
<svg version="1.1" id="Layer_1" xmlns="http://www.w3.org/2000/svg" xmlns:xlink="http://www.w3.org/1999/xlink" x="0px" y="0px"
	 viewBox="0 0 97.7 97.7" style="enable-background:new 0 0 97.7 97.7;" xml:space="preserve">
<path d="M94.2,14.8c-0.6-0.1-1.2,0.1-1.6,0.5L75,33L64.8,22.7L82.3,5.1c0.4-0.4,0.6-1,0.5-1.6s-0.5-1.1-1-1.3
	C78.5,0.8,74.9,0,71.3,0c-7,0-13.7,2.7-18.6,7.7c-6.9,6.9-9.4,17.1-6.6,26.3L3.6,76.5c-4.8,4.8-4.8,12.7,0,17.6
	c2.3,2.3,5.5,3.6,8.8,3.6s6.4-1.3,8.8-3.6l42.5-42.5c2.5,0.8,5.1,1.1,7.7,1.1c7,0,13.7-2.7,18.6-7.7c7.7-7.7,9.9-19.2,5.5-29.2
	C95.2,15.3,94.8,14.9,94.2,14.8z M87.5,42.6c-4.3,4.3-10,6.7-16.1,6.7c-2.6,0-5.2-0.4-7.6-1.3c-0.6-0.2-1.4-0.1-1.8,0.4L18.7,91.7
	c-1.7,1.7-3.9,2.6-6.3,2.6s-4.6-0.9-6.3-2.6c-3.5-3.5-3.5-9.1,0-12.6l43.3-43.3c0.5-0.5,0.7-1.2,0.4-1.8c-2.9-8.4-0.9-17.5,5.4-23.7
	c4.3-4.3,10-6.7,16.1-6.7c2.3,0,4.5,0.3,6.6,1L61,21.5c-0.7,0.7-0.7,1.8,0,2.5l12.7,12.8c0.3,0.3,0.8,0.5,1.2,0.5
	c0.5,0,0.9-0.2,1.2-0.5l16.9-17C95.6,27.8,93.5,36.5,87.5,42.6z"/>
</svg>
