<svg xmlns="http://www.w3.org/2000/svg" xmlns:xlink="http://www.w3.org/1999/xlink" version="1.1" x="0px" y="0px" viewBox="0 0 100 100" enable-background="new 0 0 100 100" xml:space="preserve"><g><path d="M19,44c-3.3,0-6,2.7-6,6s2.7,6,6,6s6-2.7,6-6S22.3,44,19,44z M19,52c-1.1,0-2-0.9-2-2s0.9-2,2-2s2,0.9,2,2S20.1,52,19,52z    M94.7,48.9l-5-8c-0.4-0.6-1-0.9-1.7-0.9H46.6C42.9,32.9,35.5,28,27,28C14.9,28,5,37.9,5,50s9.9,22,22,22c7.6,0,14.4-3.9,18.3-9.9   l1.3,1.3C47,63.8,47.5,64,48,64h4c0.5,0,1-0.2,1.4-0.6l3.4-3.4H60c0.4,0,0.9-0.1,1.2-0.4l2.8-2.1l2.8,2.1c0.7,0.5,1.7,0.5,2.4,0   l2.8-2.1l2.8,2.1c0.7,0.5,1.7,0.5,2.4,0l2.8-2.1l2.8,2.1c0.3,0.3,0.8,0.4,1.2,0.4h4c0.7,0,1.3-0.4,1.7-0.9l5-8   C95.1,50.4,95.1,49.6,94.7,48.9z M86.9,44l1.2,2H48.6c-0.1-0.7-0.3-1.3-0.5-2H86.9z M27,68c-9.9,0-18-8.1-18-18s8.1-18,18-18   s18,8.1,18,18S36.9,68,27,68z M86.9,56h-2.2l-3.5-2.6c-0.7-0.5-1.7-0.5-2.4,0L76,55.5l-2.8-2.1c-0.7-0.5-1.7-0.5-2.4,0L68,55.5   l-2.8-2.1c-0.7-0.5-1.7-0.5-2.4,0L59.3,56H56c-0.5,0-1,0.2-1.4,0.6L51.2,60h-2.3l-1.5-1.5C48.4,55.9,49,53,49,50h41.6L86.9,56z"></path></g></svg>