<svg xmlns="http://www.w3.org/2000/svg" xmlns:xlink="http://www.w3.org/1999/xlink" version="1.1" x="0px" y="0px" viewBox="0 0 24 24" enable-background="new 0 0 24 24" xml:space="preserve"><g><path d="M11.719,1.02c-5.945,0-10.781,4.836-10.781,10.781c0,5.944,4.836,10.781,10.781,10.781c5.944,0,10.781-4.837,10.781-10.781   C22.5,5.856,17.663,1.02,11.719,1.02z M11.719,21.602c-5.404,0-9.801-4.396-9.801-9.801C1.917,6.397,6.314,2,11.719,2   s9.801,4.397,9.801,9.801C21.52,17.205,17.123,21.602,11.719,21.602z"></path><path d="M12.117,11.223c-1.083-0.448-1.543-0.771-1.543-1.418c0-0.498,0.361-1.07,1.319-1.07c0.796,0,1.306,0.274,1.568,0.423   l0.234-0.821C13.333,8.124,13,7.924,12,7.899V6h-1v1.949C10,8.137,9.313,8.92,9.313,9.954c0,1.082,0.88,1.654,2.149,2.151   c0.921,0.374,1.455,0.796,1.455,1.482c0,0.708-0.574,1.22-1.458,1.22c-0.697,0-1.332-0.238-1.78-0.536l-0.44,0.834   C9.674,15.415,10,15.639,11,15.652V17h1v-1.386c1-0.211,2.005-1.132,2.005-2.115C14.005,12.392,13.398,11.745,12.117,11.223z"></path></g></svg>