<svg xmlns:dc="http://purl.org/dc/elements/1.1/" xmlns:cc="http://creativecommons.org/ns#" xmlns:rdf="http://www.w3.org/1999/02/22-rdf-syntax-ns#" xmlns:svg="http://www.w3.org/2000/svg" xmlns="http://www.w3.org/2000/svg" xmlns:sodipodi="http://sodipodi.sourceforge.net/DTD/sodipodi-0.dtd" xmlns:inkscape="http://www.inkscape.org/namespaces/inkscape" viewBox="0 0 48 48.000001" version="1.1" x="0px" y="0px"><g transform="translate(0,-1004.3622)"><path style="color:#000000;font-style:normal;font-variant:normal;font-weight:normal;font-stretch:normal;font-size:medium;line-height:normal;font-family:sans-serif;text-indent:0;text-align:start;text-decoration:none;text-decoration-line:none;text-decoration-style:solid;text-decoration-color:#000000;letter-spacing:normal;word-spacing:normal;text-transform:none;direction:ltr;block-progression:tb;writing-mode:lr-tb;baseline-shift:baseline;text-anchor:start;white-space:normal;clip-rule:nonzero;display:inline;overflow:visible;visibility:visible;opacity:1;isolation:auto;mix-blend-mode:normal;color-interpolation:sRGB;color-interpolation-filters:linearRGB;solid-color:#000000;solid-opacity:1;fill:#000000;fill-opacity:1;fill-rule:nonzero;stroke:none;stroke-width:2;stroke-linecap:round;stroke-linejoin:round;stroke-miterlimit:4;stroke-dasharray:none;stroke-dashoffset:0;stroke-opacity:1;color-rendering:auto;image-rendering:auto;shape-rendering:auto;text-rendering:auto;enable-background:accumulate" d="m 16.710938,1004.3613 c -5.142155,5e-4 -9.3608038,4.0767 -9.3613286,9.1153 -1.91e-4,0.8464 0.2433671,1.6616 0.4804687,2.4726 C 4.910929,1017.545 3.004645,1020.5064 3,1023.8223 a 1.0001,1.0001 0 0 0 0,0 c 0.00244,1.7412 0.595128,3.401 1.5507812,4.8574 -0.9542116,1.4542 -1.546769,3.1112 -1.5507812,4.8496 a 1.0001,1.0001 0 0 0 0,0 c 0.00426,3.2435 1.8296835,6.1567 4.6523438,7.7793 -0.1431424,0.6389 -0.3030504,1.2779 -0.3027344,1.9335 0.00157,5.0377 4.2197996,9.1129 9.3613286,9.1133 2.533305,0 5.330931,-0.7535 7.251953,-2.5879 1.658398,1.7296 3.783926,2.5842 6.296875,2.5879 a 1.0001,1.0001 0 0 0 0.002,0 c 5.142205,-4e-4 9.360867,-4.0766 9.361328,-9.1152 a 1.0001,1.0001 0 0 0 0,-0 c -9.44e-4,-0.5011 -0.114096,-0.9911 -0.199219,-1.4843 3.320336,-1.4535 5.571621,-4.6111 5.576172,-8.2246 a 1.0001,1.0001 0 0 0 0,-0 c -0.0037,-1.7401 -0.59912,-3.3983 -1.554688,-4.8535 0.955673,-1.4548 1.550538,-3.1136 1.554688,-4.8535 a 1.0001,1.0001 0 0 0 0,-0 c -0.0011,-3.6788 -2.328597,-6.8766 -5.732422,-8.295 0.163939,-0.6759 0.353163,-1.3501 0.355469,-2.0468 a 1.0001,1.0001 0 0 0 0,-0 c -5.25e-4,-5.0386 -4.219173,-9.1148 -9.361328,-9.1153 -2.516255,0 -4.642299,0.8583 -6.300781,2.5899 -1.921209,-1.8324 -4.718332,-2.5861 -7.248047,-2.5899 a 1.0001,1.0001 0 0 0 -0.002,0 z m 0,2 c 2.466744,0 5.205932,0.8721 6.486328,2.5977 a 1.0001,1.0001 0 0 0 1.605468,0 c 1.406414,-1.8953 2.9922,-2.5977 5.458985,-2.5977 4.093241,4e-4 7.360919,3.1902 7.361328,7.1153 -0.0028,0.7755 -0.136314,1.5448 -0.396485,2.2793 a 1.0001,1.0001 0 0 0 0.648438,1.289 c 3.068225,0.9459 5.123163,3.6859 5.125,6.7754 -0.0036,1.5291 -0.516401,3.0156 -1.466797,4.2442 a 1.0001,1.0001 0 0 0 0,1.2246 c 0.950754,1.2289 1.463566,2.7164 1.466797,4.2461 -0.0047,3.0275 -1.983045,5.724 -4.966797,6.7168 a 1.0001,1.0001 0 0 0 -0.648437,1.2109 c 0.157814,0.5835 0.237146,1.1824 0.238281,1.7851 -0.0015,3.9235 -3.267736,7.1119 -7.359375,7.1133 -2.466364,-0 -4.056186,-0.7026 -5.460938,-2.5957 a 1.0001,1.0001 0 0 0 -1.605468,0 c -1.282135,1.7279 -4.019544,2.5957 -6.486328,2.5957 -4.093273,-3e-4 -7.3609696,-3.1902 -7.3613286,-7.1152 -3.444e-4,-0.7147 0.1111102,-1.4242 0.3300781,-2.1074 a 1.0001,1.0001 0 0 0 -0.5273437,-1.211 C 6.6045879,1038.7343 5.0043446,1036.253 5,1033.5352 c 0.00353,-1.528 0.5156818,-3.0141 1.4648438,-4.2422 a 1.0001,1.0001 0 0 0 0,-1.2227 C 5.5147794,1026.841 5.0025793,1025.3537 5,1023.8242 l 0,-0 c 0.00469,-2.7846 1.6834344,-5.3141 4.3261719,-6.4707 a 1.0001,1.0001 0 0 0 0.5253906,-1.2891 c -0.3321974,-0.8244 -0.5021525,-1.7004 -0.5019531,-2.584 a 1.0001,1.0001 0 0 0 0,-0 c 4.088e-4,-3.9251 3.2680866,-7.1149 7.3613286,-7.1153 z"></path><path style="color:#000000;font-style:normal;font-variant:normal;font-weight:normal;font-stretch:normal;font-size:medium;line-height:normal;font-family:sans-serif;text-indent:0;text-align:start;text-decoration:none;text-decoration-line:none;text-decoration-style:solid;text-decoration-color:#000000;letter-spacing:normal;word-spacing:normal;text-transform:none;direction:ltr;block-progression:tb;writing-mode:lr-tb;baseline-shift:baseline;text-anchor:start;white-space:normal;clip-rule:nonzero;display:inline;overflow:visible;visibility:visible;opacity:1;isolation:auto;mix-blend-mode:normal;color-interpolation:sRGB;color-interpolation-filters:linearRGB;solid-color:#000000;solid-opacity:1;fill:#000000;fill-opacity:1;fill-rule:evenodd;stroke:none;stroke-width:2;stroke-linecap:round;stroke-linejoin:round;stroke-miterlimit:4;stroke-dasharray:none;stroke-dashoffset:0;stroke-opacity:1;color-rendering:auto;image-rendering:auto;shape-rendering:auto;text-rendering:auto;enable-background:accumulate" d="m 32.951172,1016.3633 a 1.0001,1.0001 0 0 0 -0.357422,0.086 l -6.974609,2.9883 a 1.0001,1.0001 0 1 0 0.787109,1.8379 l 6.974609,-2.9883 a 1.0001,1.0001 0 0 0 -0.429687,-1.9238 z"></path><path style="color:#000000;font-style:normal;font-variant:normal;font-weight:normal;font-stretch:normal;font-size:medium;line-height:normal;font-family:sans-serif;text-indent:0;text-align:start;text-decoration:none;text-decoration-line:none;text-decoration-style:solid;text-decoration-color:#000000;letter-spacing:normal;word-spacing:normal;text-transform:none;direction:ltr;block-progression:tb;writing-mode:lr-tb;baseline-shift:baseline;text-anchor:start;white-space:normal;clip-rule:nonzero;display:inline;overflow:visible;visibility:visible;opacity:1;isolation:auto;mix-blend-mode:normal;color-interpolation:sRGB;color-interpolation-filters:linearRGB;solid-color:#000000;solid-opacity:1;fill:#000000;fill-opacity:1;fill-rule:evenodd;stroke:none;stroke-width:2;stroke-linecap:round;stroke-linejoin:round;stroke-miterlimit:4;stroke-dasharray:none;stroke-dashoffset:0;stroke-opacity:1;color-rendering:auto;image-rendering:auto;shape-rendering:auto;text-rendering:auto;enable-background:accumulate" d="m 32.951172,1027.3633 a 1.0001,1.0001 0 0 0 -0.357422,0.086 l -6.974609,2.9883 a 1.0001,1.0001 0 1 0 0.787109,1.8379 l 6.974609,-2.9883 a 1.0001,1.0001 0 0 0 -0.429687,-1.9238 z"></path><path style="color:#000000;font-style:normal;font-variant:normal;font-weight:normal;font-stretch:normal;font-size:medium;line-height:normal;font-family:sans-serif;text-indent:0;text-align:start;text-decoration:none;text-decoration-line:none;text-decoration-style:solid;text-decoration-color:#000000;letter-spacing:normal;word-spacing:normal;text-transform:none;direction:ltr;block-progression:tb;writing-mode:lr-tb;baseline-shift:baseline;text-anchor:start;white-space:normal;clip-rule:nonzero;display:inline;overflow:visible;visibility:visible;opacity:1;isolation:auto;mix-blend-mode:normal;color-interpolation:sRGB;color-interpolation-filters:linearRGB;solid-color:#000000;solid-opacity:1;fill:#000000;fill-opacity:1;fill-rule:evenodd;stroke:none;stroke-width:2;stroke-linecap:round;stroke-linejoin:round;stroke-miterlimit:4;stroke-dasharray:none;stroke-dashoffset:0;stroke-opacity:1;color-rendering:auto;image-rendering:auto;shape-rendering:auto;text-rendering:auto;enable-background:accumulate" d="m 32.951172,1038.3633 a 1.0001,1.0001 0 0 0 -0.357422,0.086 l -6.974609,2.9883 a 1.0001,1.0001 0 1 0 0.787109,1.8379 l 6.974609,-2.9883 a 1.0001,1.0001 0 0 0 -0.429687,-1.9238 z"></path><path style="color:#000000;font-style:normal;font-variant:normal;font-weight:normal;font-stretch:normal;font-size:medium;line-height:normal;font-family:sans-serif;text-indent:0;text-align:start;text-decoration:none;text-decoration-line:none;text-decoration-style:solid;text-decoration-color:#000000;letter-spacing:normal;word-spacing:normal;text-transform:none;direction:ltr;block-progression:tb;writing-mode:lr-tb;baseline-shift:baseline;text-anchor:start;white-space:normal;clip-rule:nonzero;display:inline;overflow:visible;visibility:visible;opacity:1;isolation:auto;mix-blend-mode:normal;color-interpolation:sRGB;color-interpolation-filters:linearRGB;solid-color:#000000;solid-opacity:1;fill:#000000;fill-opacity:1;fill-rule:evenodd;stroke:none;stroke-width:2;stroke-linecap:round;stroke-linejoin:round;stroke-miterlimit:4;stroke-dasharray:none;stroke-dashoffset:0;stroke-opacity:1;color-rendering:auto;image-rendering:auto;shape-rendering:auto;text-rendering:auto;enable-background:accumulate" d="m 15.019531,1013.3633 a 1.0001,1.0001 0 0 0 -0.40039,1.9238 l 6.974609,2.9883 a 1.0001,1.0001 0 1 0 0.787109,-1.8379 l -6.974609,-2.9883 a 1.0001,1.0001 0 0 0 -0.386719,-0.086 z"></path><path style="color:#000000;font-style:normal;font-variant:normal;font-weight:normal;font-stretch:normal;font-size:medium;line-height:normal;font-family:sans-serif;text-indent:0;text-align:start;text-decoration:none;text-decoration-line:none;text-decoration-style:solid;text-decoration-color:#000000;letter-spacing:normal;word-spacing:normal;text-transform:none;direction:ltr;block-progression:tb;writing-mode:lr-tb;baseline-shift:baseline;text-anchor:start;white-space:normal;clip-rule:nonzero;display:inline;overflow:visible;visibility:visible;opacity:1;isolation:auto;mix-blend-mode:normal;color-interpolation:sRGB;color-interpolation-filters:linearRGB;solid-color:#000000;solid-opacity:1;fill:#000000;fill-opacity:1;fill-rule:evenodd;stroke:none;stroke-width:2;stroke-linecap:round;stroke-linejoin:round;stroke-miterlimit:4;stroke-dasharray:none;stroke-dashoffset:0;stroke-opacity:1;color-rendering:auto;image-rendering:auto;shape-rendering:auto;text-rendering:auto;enable-background:accumulate" d="m 15.019531,1024.3633 a 1.0001,1.0001 0 0 0 -0.40039,1.9238 l 6.974609,2.9883 a 1.0001,1.0001 0 1 0 0.787109,-1.8379 l -6.974609,-2.9883 a 1.0001,1.0001 0 0 0 -0.386719,-0.086 z"></path><path style="color:#000000;font-style:normal;font-variant:normal;font-weight:normal;font-stretch:normal;font-size:medium;line-height:normal;font-family:sans-serif;text-indent:0;text-align:start;text-decoration:none;text-decoration-line:none;text-decoration-style:solid;text-decoration-color:#000000;letter-spacing:normal;word-spacing:normal;text-transform:none;direction:ltr;block-progression:tb;writing-mode:lr-tb;baseline-shift:baseline;text-anchor:start;white-space:normal;clip-rule:nonzero;display:inline;overflow:visible;visibility:visible;opacity:1;isolation:auto;mix-blend-mode:normal;color-interpolation:sRGB;color-interpolation-filters:linearRGB;solid-color:#000000;solid-opacity:1;fill:#000000;fill-opacity:1;fill-rule:evenodd;stroke:none;stroke-width:2;stroke-linecap:round;stroke-linejoin:round;stroke-miterlimit:4;stroke-dasharray:none;stroke-dashoffset:0;stroke-opacity:1;color-rendering:auto;image-rendering:auto;shape-rendering:auto;text-rendering:auto;enable-background:accumulate" d="m 15.019531,1035.3633 a 1.0001,1.0001 0 0 0 -0.40039,1.9238 l 6.974609,2.9883 a 1.0001,1.0001 0 1 0 0.787109,-1.8379 l -6.974609,-2.9883 a 1.0001,1.0001 0 0 0 -0.386719,-0.086 z"></path></g></svg>